<svg width="600" height="600" xmlns="http://www.w3.org/2000/svg">
 <g>
  <title>Layer 1</title>
  <g fill="#0c5b5b" stroke="null" id="svg_1">
   <title fill="#0c5b5b" stroke="null"/>
   <g stroke="null" id="svg_18" fill="#0c5b5b">
    <path stroke="null" fill="#3093c7" d="m567.32503,67.04595l-85.7548,0c2.97042,-14.46467 0.10332,-29.49759 -8.00723,-41.84421c-5.63089,-6.48327 -13.89641,-10.07361 -22.47189,-9.81531c-40.75936,5.94084 -78.8066,23.94419 -109.25988,51.65952l-88.33778,0c-31.40899,-28.12861 -70.5669,-46.13195 -112.35946,-51.65952c-8.6788,-0.33579 -17.02181,3.28038 -22.73019,9.81531c-8.00723,12.37245 -10.79684,27.4312 -7.74893,41.84421l-85.7548,0c-7.12901,0 -12.91488,5.78587 -12.91488,12.91488l0,103.31904c0,7.12901 5.78587,12.91488 12.91488,12.91488l175.38407,0l-13.94807,25.82976l-135.60624,0c-7.12901,0 -12.91488,5.78587 -12.91488,12.91488l0,335.78688c0,7.12901 5.78587,12.91488 12.91488,12.91488l206.63808,0c7.12901,0 12.91488,-5.78587 12.91488,-12.91488l0,-328.55454l25.82976,-51.65952l25.82976,67.67397l0,312.54009c0,7.12901 5.78587,12.91488 12.91488,12.91488l206.63808,0c7.12901,0 12.91488,-5.78587 12.91488,-12.91488l0,-335.78688c0,-7.12901 -5.78587,-12.91488 -12.91488,-12.91488l-143.87176,0l-10.3319,-25.82976l180.80832,0c7.12901,0 12.91488,-5.78587 12.91488,-12.91488l0,-103.31904c0,-7.12901 -5.76004,-12.91488 -12.88905,-12.94071c-0.2583,0 -0.54242,0 -0.80072,0.02583l-0.00001,0zm-190.62363,172.5428l0,0l0,0l-12.39828,-4.13276c-6.7674,-2.19553 -14.05139,1.49813 -16.27275,8.26552l-1.80808,5.16595l-32.80379,-82.65523c5.86336,-2.19553 11.28761,-5.42425 16.01445,-9.55701l17.56424,8.52382l8.78212,21.9553l0,0l20.92211,52.43441l-0.00002,0zm-140.2556,13.17318l-6.97404,-11.62339c-3.09957,-5.26927 -9.45369,-7.61978 -15.23956,-5.68255l-7.74893,2.58298l37.96975,-70.51524l18.85572,-8.52382c4.05527,3.25455 8.60131,5.86336 13.43148,7.74893l-40.29443,86.0131l0.00001,-0.00001zm85.4965,-134.05645c0,14.25803 -11.57173,25.82976 -25.82976,25.82976s-25.82976,-11.57173 -25.82976,-25.82976s11.57173,-25.82976 25.82976,-25.82976s25.82976,11.57173 25.82976,25.82976zm132.24837,-77.48928c4.13276,4.90765 2.06638,23.24678 0,35.90337l0,0l0,4.13276c0,4.64936 -1.29149,9.04042 -1.80808,13.17318c-0.20664,3.43536 -0.20664,6.89655 0,10.3319l0,8.26552c0,14.72296 0,45.20208 -8.00723,54.2425s-47.78506,-7.49063 -81.62204,-22.73019l0,0l-17.82253,-8.26552c4.67519,-11.77837 4.67519,-24.89989 0,-36.67826c34.09528,-32.5455 80.33055,-58.37526 106.16031,-58.37526c0.98153,-0.41328 2.11804,-0.41328 3.09957,0zm-316.15626,0c0.98153,-0.41328 2.11804,-0.41328 3.09957,0c40.94017,7.18067 78.65162,26.86295 107.9684,56.30888c-5.45008,12.88905 -5.45008,27.40538 0,40.29443c-37.71145,16.78934 -92.72884,37.96975 -100.21947,30.47912s-7.74893,-39.51953 -7.74893,-54.2425l0,-8.26552c0.20664,-3.43536 0.20664,-6.89655 0,-10.3319c0,-4.13276 0,-8.52382 -1.80808,-13.17318l0,-4.13276l0,0c-3.35787,-13.17318 -5.42425,-31.25401 -1.29149,-36.93656l0,-0.00001z" id="svg_2"/>
    <rect stroke="null" id="svg_22" height="342.99999" width="83" y="240.00001" x="253" fill="#3093c7"/>
   </g>
  </g>
  <rect id="svg_20" height="0" width="10" y="377" x="341" stroke="null" fill="#ff5656"/>
  <rect id="svg_21" height="0" width="1" y="354" x="265" stroke="null" fill="#ff5656"/>
 </g>

</svg>